# AST/ASF file generated using VICON BodyLanguage
# -----------------------------------------------
:version 1.10
:name VICON
:units
  mass 1.0
  length 0.45
  angle deg
:documentation
   .ast/.asf automatically generated from VICON data using
   VICON BodyBuilder and BodyLanguage model FoxedUp or BRILLIANT.MOD
:root
   order TX TY TZ RX RY RZ
   axis XYZ
   position 0 0 0  
   orientation 0 0 0 
:bonedata
  begin
     id 1 
     name lhipjoint
     direction 0.623415 -0.642378 0.445763 
     length 2.49859 
     axis 0 0 0  XYZ
  end
  begin
     id 2 
     name lfemur
     direction 0.34202 -0.939693 0  
     length 6.69689  
     axis 0 0 20  XYZ
    dof rx ry rz
    limits (-160.0 20.0)
           (-70.0 70.0)
           (-60.0 70.0)
  end
  begin
     id 3 
     name ltibia
     direction 0.34202 -0.939693 0   
     length 7.37574   
     axis 0 0 20   XYZ
    dof rx
    limits (-10.0 170.0)
  end
  begin
     id 4 
     name lfoot
     direction 0.084323 -0.231675 0.969132   
     length 2.09111   
     axis -90 7.62852e-016 20   XYZ
    dof rx rz
    limits (-45.0 90.0)
           (-70.0 20.0)
  end
  begin
     id 5 
     name ltoes
     direction 1.5357e-011 -4.21957e-011 1   
     length 1.04989   
     axis -90 7.62852e-016 20   XYZ
    dof rx
    limits (-90.0 20.0)
  end
  begin
     id 6 
     name rhipjoint
     direction -0.605402 -0.653903 0.45376   
     length 2.45455  
     axis 0 0 0  XYZ 
  end
  begin
     id 7 
     name rfemur
     direction -0.34202 -0.939693 0   
     length 6.64523   
     axis 0 0 -20   XYZ
    dof rx ry rz
    limits (-160.0 20.0)
           (-70.0 70.0)
           (-70.0 60.0)
  end
  begin
     id 8 
     name rtibia
     direction -0.34202 -0.939693 0   
     length 7.3339   
     axis 0 0 -20   XYZ
    dof rx
    limits (-10.0 170.0)
 end
 begin
     id 9 
     name rfoot
     direction -0.120854 -0.332043 0.93549   
     length 2.23135  
     axis -90 -7.62852e-016 -20   XYZ
    dof rx rz
    limits (-45.0 90.0)
           (-20.0 70.0)
  end
  begin
     id 10 
     name rtoes
     direction -1.53563e-011 -4.21914e-011 1   
     length 1.10614   
     axis -90 -7.62852e-016 -20   XYZ
    dof rx
    limits (-90.0 20.0)
  end
  begin
     id 11 
     name lowerback
     direction 0.0319682 0.998615 -0.0417941   
     length 2.02718   
     axis 0 0 0   XYZ
    dof rx ry rz
    limits (-20.0 45.0)
           (-30.0 30.0)
           (-30.0 30.0)
  end
  begin
     id 12 
     name upperback
     direction 7.63181e-005 0.995808 0.0914691   
     length 1.97539   
     axis 0 0 0   XYZ
    dof rx ry rz
    limits (-20.0 45.0)
           (-30.0 30.0)
           (-30.0 30.0)
  end
  begin
     id 13 
     name thorax
     direction -0.016423 0.993627 0.111514   
     length 2.00349   
     axis 0 0 0   XYZ
    dof rx ry rz
    limits (-20.0 45.0)
           (-30.0 30.0)
           (-30.0 30.0)
  end
  begin
     id 14 
     name lowerneck
     direction -0.174763 0.981668 -0.0760716   
     length 1.71436   
     axis 0 0 0   XYZ
    dof rx ry rz
    limits (-20.0 45.0)
           (-30.0 30.0)
           (-30.0 30.0)
  end
  begin
     id 15 
     name upperneck
     direction 0.345458 0.934587 -0.0848868   
     length 1.72805   
     axis 0 0 0   XYZ
    dof rx ry rz
    limits (-20.0 45.0)
           (-30.0 30.0)
           (-30.0 30.0)
  end
  begin
     id 16
     name head
     direction 0.13001 0.989848 -0.0574291  
     length 1.767  
     axis 0 0 0   XYZ
    dof rx ry rz
    limits (-20.0 45.0)
           (-30.0 30.0)
           (-30.0 30.0)
  end
  begin
     id 17 
     name lclavicle
     direction 0.952951 0.290122 0.0878234  
     length 3.54654  
     axis 0 0 0   XYZ
    dof ry rz
    limits (-20.0 10.0)
           (0.0 20.0)
  end
  begin
     id 18 
     name lhumerus
     direction 1 -4.48957e-011 -4.56525e-028   
     length 5.19807   
     axis 180 -30 -90   XYZ
    dof rx ry rz
    limits (-60.0 90.0)
           (-90.0 90.0)
           (-90.0 90.0)
  end
  begin
     id 19
     name lradius
     direction 1 -4.48979e-011 -2.0317e-027   
     length 3.0937   
     axis 180 -30 -90   XYZ
    dof rx
    limits (-10.0 170.0)
  end
  begin
     id 20
     name lwrist
     direction 1 -4.48953e-011 -3.05809e-027   
     length 1.54685   
     axis 8.48514e-016 90 90   XYZ
    dof ry
    limits (-180.0 0.0)
 end
  begin
     id 21 
     name lhand
     direction 1 -4.48952e-011 -6.11639e-027   
     length 0.672632   
     axis 3.9013e-015 90 90   XYZ
    dof rx rz
    limits (-90.0 90.0)
           (-45.0 45.0)
  end
  begin
     id 22 
     name lfingers
     direction 1 -4.48925e-011 -1.22426e-026   
     length 0.542293   
     axis 7.80276e-015 90 90   XYZ
    dof rx
    limits (0.0 90.0)
  end
  begin
     id 23
     name lthumb
     direction 0.707107 -6.3486e-011 0.707107   
     length 0.778628   
     axis -90 45 5.37419e-014   XYZ
    dof rx rz
    limits (-45.0 45.0)
           (-45.0 45.0)
  end
  begin
     id 24 
     name rclavicle
     direction -0.960732 0.273675 -0.0457849   
     length 3.52079  
     axis 0 0 0   XYZ 
    dof ry rz
    limits (-10.0 20.0)
           (-20.0 0.0)
  end
  begin
     id 25 
     name rhumerus
     direction -1 -4.48976e-011 -1.63613e-027  
     length 5.45222   
     axis 180 30 90   XYZ
    dof rx ry rz
    limits (-90.0 60.0)
           (-90.0 90.0)
           (-90.0 90.0)
  end
  begin
     id 26 
     name rradius
     direction -1 -4.48957e-011 -7.00033e-028   
     length 3.01284   
     axis 180 30 90   XYZ
    dof rx
    limits (-10.0 170.0)
  end
  begin
     id 27 
     name rwrist
     direction -1 -4.48983e-011 -3.05543e-027   
     length 1.50642   
     axis 8.48514e-016 -90 -90   XYZ
    dof ry
    limits (-180.0 0.0)
  end
  begin
     id 28
     name rhand
     direction -1 -4.48984e-011 -6.11072e-027   
     length 0.622296   
     axis 3.9013e-015 -90 -90   XYZ
    dof rx rz
    limits (-90.0 90.0)
           (-45.0 45.0)
  end
  begin
     id 29
     name rfingers
     direction -1 -4.48865e-011 -1.22637e-026   
     length 0.501711   
     axis 7.80276e-015 -90 -90   XYZ
    dof rx
    limits (0.0 90.0)
  end
  begin
     id 30
     name rthumb
     direction -0.707107 -6.34932e-011 0.707107   
     length 0.72036   
     axis -90 -45 -5.37419e-014   XYZ
    dof rx rz
    limits (-45.0 45.0)
           (-45.0 45.0)
  end
:hierarchy
  begin
    root lhipjoint rhipjoint lowerback
    lhipjoint lfemur
    lfemur ltibia
    ltibia lfoot
    lfoot ltoes
    rhipjoint rfemur
    rfemur rtibia
    rtibia rfoot
    rfoot rtoes
    lowerback upperback
    upperback thorax
    thorax lowerneck lclavicle rclavicle
    lowerneck upperneck
    upperneck head
    lclavicle lhumerus
    lhumerus lradius
    lradius lwrist
    lwrist lhand lthumb
    lhand lfingers
    rclavicle rhumerus
    rhumerus rradius
    rradius rwrist
    rwrist rhand rthumb
    rhand rfingers
  end

#!OML:ASF H:\Not Pregnant\Project 1\Capture day 1\Session 1\non-pregnant.ASF
:FULLY-SPECIFIED
:DEGREES
1215
root 8.92997 15.6836 26.1372 13.9479 -83.2676 -0.392213
lowerback 16.1141 -4.62635 5.11346
upperback 0.10276 -5.42579 -2.22636
thorax -9.64922 -2.91438 -3.97369
lowerneck 6.98811 -9.5386 -28.5417
upperneck -18.5289 -14.3713 47.2271
head 1.1728 -10.006 25.1149
rclavicle 1.51076e-014 -1.59028e-014
rhumerus -25.6255 6.51396 -87.6
rradius 37.9795
rwrist 20.9449
rhand -7.27098 2.45973
rfingers 7.12502
rthumb 18.6102 -26.6701
lclavicle 1.51076e-014 -1.59028e-014
lhumerus -14.318 -40.1604 86.8265
lradius 24.1772
lwrist 6.82482
lhand -12.0068 -7.126
lfingers 7.12502
lthumb 14.0504 22.3791
rfemur -35.2324 -8.22215 30.1181
rtibia 39.2011
rfoot -18.7346 7.71
rtoes -7.20656
lfemur -88.2615 36.0331 -30.5392
ltibia 105.615
lfoot 12.4183 -23.2775
ltoes -10.2228
1216
root 8.94144 15.695 26.1202 10.6678 -83.315 2.90944
lowerback 16.4797 -4.7926 4.72002
upperback 0.26256 -5.71812 -2.32985
thorax -9.68416 -3.03584 -3.76969
lowerneck 6.69862 -9.50893 -28.516
upperneck -18.6542 -14.2517 47.2959
head 1.15999 -9.9482 25.1817
rclavicle -3.85642e-014 -2.38542e-015
rhumerus -25.3706 6.57202 -87.5141
rradius 38.2563
rwrist 20.6892
rhand -7.45521 2.42593
rfingers 7.12502
rthumb 18.433 -26.7207
lclavicle -3.85642e-014 -2.38542e-015
lhumerus -13.6518 -38.7484 85.9832
lradius 23.6357
lwrist 6.31263
lhand -11.851 -6.53648
lfingers 7.12502
lthumb 14.2006 22.9581
rfemur -35.3049 -8.43033 29.7394
rtibia 39.1987
rfoot -18.7833 7.92462
rtoes -7.94492
lfemur -90.0618 36.633 -31.3595
ltibia 107.117
lfoot 13.0822 -23.832
ltoes -9.3764
1217
root 8.9525 15.7059 26.1037 7.40421 -83.3714 6.19255
lowerback 16.851 -4.96407 4.31854
upperback 0.41339 -6.01948 -2.4161
thorax -9.72676 -3.16098 -3.53751
lowerneck 6.40359 -9.46118 -28.5496
upperneck -18.7581 -14.1197 47.3647
head 1.15501 -9.88009 25.2776
rclavicle -2.62396e-014 -3.89618e-014
rhumerus -25.1515 6.75295 -87.4299
rradius 38.5809
rwrist 20.3919
rhand -7.62701 2.33607
rfingers 7.12502
rthumb 18.2677 -26.8261
lclavicle -2.62396e-014 -3.89618e-014
lhumerus -13.0396 -37.1813 85.1518
lradius 23.1182
lwrist 5.79764
lhand -11.6849 -5.95439
lfingers 7.12502
lthumb 14.3606 23.5289
rfemur -35.3737 -8.61238 29.3649
rtibia 39.1976
rfoot -18.836 8.13892
rtoes -8.70789
lfemur -91.8894 37.2671 -32.2063
ltibia 108.579
lfoot 13.7712 -24.4147
ltoes -8.51098
1218
root 8.96311 15.7165 26.0876 4.16986 -83.4414 9.44227
lowerback 17.2249 -5.12866 3.93019
upperback 0.56353 -6.31145 -2.49846
thorax -9.76773 -3.28222 -3.30906
lowerneck 6.09841 -9.4101 -28.6313
upperneck -18.8536 -13.9934 47.4477
head 1.16583 -9.81389 25.4028
rclavicle 4.01545e-014 4.77083e-015
rhumerus -24.9705 7.04334 -87.3571
rradius 38.9692
rwrist 20.0189
rhand -7.80744 2.13721
rfingers 7.12502
rthumb 18.0941 -27.0412
lclavicle 4.01545e-014 4.77083e-015
lhumerus -12.4849 -35.6381 84.3327
lradius 22.6577
lwrist 5.36301
lhand -11.5617 -5.34504
lfingers 7.12502
lthumb 14.4793 24.1298
rfemur -35.4298 -8.76223 28.9978
rtibia 39.1887
rfoot -18.8839 8.36192
rtoes -9.43065
lfemur -93.7445 37.9436 -33.0771
ltibia 109.998
lfoot 14.4905 -25.0086
ltoes -7.61804
1219
root 8.97313 15.7268 26.0717 0.972042 -83.5238 12.6527
lowerback 17.5859 -5.2654 3.59372
upperback 0.722546 -6.56279 -2.61053
thorax -9.79389 -3.38768 -3.15286
lowerneck 5.81619 -9.37095 -28.6887
upperneck -18.9777 -13.8847 47.5524
head 1.17398 -9.76479 25.5385
rclavicle 3.69739e-014 -2.94201e-014
rhumerus -24.8406 7.39035 -87.3152
rradius 39.4335
rwrist 19.5185
rhand -8.0164 1.80702
rfingers 7.12502
rthumb 17.8931 -27.3898
lclavicle 3.69739e-014 -2.94201e-014
lhumerus -11.9946 -34.3796 83.5023
lradius 22.3038
lwrist 5.04221
lhand -11.4624 -4.6848
lfingers 7.12502
lthumb 14.5751 24.7831
rfemur -35.4713 -8.87913 28.6416
rtibia 39.1668
rfoot -18.916 8.60553
rtoes -10.0869
lfemur -95.633 38.6613 -33.9762
ltibia 111.377
lfoot 15.2013 -25.6212
ltoes -6.77038
1220
root 8.98259 15.7371 26.0568 -2.18636 -83.606 15.8173
lowerback 17.9277 -5.35645 3.342
upperback 0.901444 -6.74607 -2.77877
thorax -9.7959 -3.46688 -3.12511
lowerneck 5.59302 -9.36451 -28.6365
upperneck -19.1795 -13.8082 47.6772
head 1.15543 -9.74936 25.6493
rclavicle 2.10712e-014 1.66979e-014
rhumerus -24.7413 7.5852 -87.2897
rradius 39.9271
rwrist 19.0022
rhand -8.24739 1.46272
rfingers 7.12502
rthumb 17.6708 -27.7543
lclavicle 2.10712e-014 1.66979e-014
lhumerus -11.5316 -33.5272 82.6389
lradius 22.0494
lwrist 4.74304
lhand -11.3342 -3.96264
lfingers 7.12502
lthumb 14.6986 25.4963
rfemur -35.4943 -8.98798 28.3039
rtibia 39.1287
rfoot -18.9387 8.86252
rtoes -10.7303
lfemur -97.5494 39.4032 -34.8988
ltibia 112.715
lfoot 15.916 -26.2342
ltoes -5.9744
